<mxfile host="app.diagrams.net" modified="2024-07-27T03:10:47.968Z" agent="Mozilla/5.0 (Windows NT 10.0; Win64; x64) AppleWebKit/537.36 (KHTML, like Gecko) Chrome/126.0.0.0 Safari/537.36" version="24.7.2" etag="Pvw_aoXvt-kQpcBBZdvM" type="github">
  <diagram name="第 1 页" id="2otNJQx4Th6LUdCDufka">
    <mxGraphModel>
      <root>
        <mxCell id="0" />
        <mxCell id="1" parent="0" />
      </root>
    </mxGraphModel>
  </diagram>
</mxfile>
